<?xml version="1.0" encoding="UTF-8"?>
<svg id="Calque_1" data-name="Calque 1" xmlns="http://www.w3.org/2000/svg" viewBox="0 0 521.13 151.32">
  <defs>
    <style>
      .cls-1 {
        fill: #7eb5d1;
      }

      .cls-2 {
        fill: #d10a11;
      }

      .cls-3 {
        fill: #6f6f6e;
      }
    </style>
  </defs>
  <rect class="cls-1" x="158.38" width="108.77" height="120.77"/>
  <polygon class="cls-3" points="286.11 120.77 286.11 0 306.13 0 306.13 100.15 356.36 100.15 356.36 120.77 286.11 120.77"/>
  <polygon class="cls-3" points="364.05 120.77 364.05 0 432.01 0 432.01 20.47 383.93 20.47 383.93 48.97 425.48 48.97 425.48 69.44 383.93 69.44 383.93 120.77 364.05 120.77"/>
  <path class="cls-3" d="m461.07,48.66h15.48c6.76,0,11.63-.54,14.59-1.63,2.94-1.1,5.26-2.99,6.95-5.66,1.7-2.68,2.54-5.75,2.54-9.2,0-2.79-.63-5.16-1.89-7.1-1.26-1.95-2.84-3.24-4.75-3.9-1.92-.65-6.05-.99-12.37-.99h-15.68l-4.88,28.48Zm-9,52.54h19.65c7.72,0,13.01-.55,15.88-1.65,2.86-1.1,5.26-3.11,7.19-6.04,1.93-2.92,2.89-6.22,2.89-9.89,0-4.33-1.27-7.72-3.79-10.19-2.53-2.46-6.53-3.7-11.98-3.7h-24.43l-5.4,31.47Zm-23.83,19.58L448.94,0h34.03c9.08,0,15.55.57,19.41,1.73,6,1.74,10.62,5.01,13.87,9.78,3.25,4.78,4.88,10.67,4.88,17.69s-1.58,13.01-4.7,17.78c-3.13,4.78-7.82,8.39-14.08,10.86,4.87,1.65,8.77,4.62,11.7,8.92,2.94,4.28,4.39,9.28,4.39,15,0,7.81-1.78,14.86-5.32,21.2-3.55,6.33-8.18,10.88-13.87,13.66-5.69,2.77-13.77,4.16-24.22,4.16h-46.81Z"/>
  <rect class="cls-3" y=".06" width="72.21" height="120.77"/>
  <rect class="cls-2" x="79.26" y=".06" width="72.21" height="120.77"/>
  <polygon class="cls-3" points=".02 150.89 11.92 150.89 11.92 148.62 2.6 148.62 2.6 142.42 11.27 142.42 11.27 140.25 2.6 140.25 2.6 134.44 11.71 134.44 11.71 132.25 .02 132.25 .02 150.89"/>
  <polygon class="cls-3" points="34.22 150.89 34.22 134.45 40.46 134.45 40.46 132.25 25.42 132.25 25.42 134.45 31.66 134.45 31.66 150.89 34.22 150.89"/>
  <polygon class="cls-3" points="56.54 132.25 56.54 140.25 65.39 140.25 65.39 132.25 67.97 132.25 67.97 150.89 65.39 150.89 65.39 142.48 56.54 142.48 56.54 150.89 53.96 150.89 53.96 132.25 56.54 132.25"/>
  <rect class="cls-3" x="83.64" y="132.25" width="2.58" height="18.64"/>
  <path class="cls-3" d="m115.85,137.28c-.34-4.23-4.05-5.29-6.68-5.29-6.63,0-8.16,5.86-8.16,9.78,0,3.62,1.27,9.4,7.82,9.4,3.2,0,6.58-1.53,6.97-5.19h-2.84c-.08.44-.23,1.24-.91,1.96-.8.82-1.88,1.11-3.02,1.11-4.26,0-5.26-3.79-5.26-7.3,0-3.1.8-7.7,5.29-7.7,3.59,0,3.92,2.58,4.02,3.23h2.76Z"/>
  <path class="cls-3" d="m133.58,143.94h7.05l-3.44-9.14-3.61,9.14Zm2.35-11.69h2.76l7.53,18.64h-2.81l-2.01-4.85h-8.64l-2.01,4.85h-2.66l7.85-18.64Z"/>
  <polygon class="cls-3" points="159.93 150.89 171.16 150.89 171.16 148.59 162.48 148.59 162.48 132.25 159.93 132.25 159.93 150.89"/>
  <path class="cls-3" d="m217.41,137.28c-.34-4.23-4.05-5.29-6.68-5.29-6.63,0-8.16,5.86-8.16,9.78,0,3.62,1.27,9.4,7.82,9.4,3.2,0,6.58-1.53,6.97-5.19h-2.84c-.08.44-.23,1.24-.91,1.96-.8.82-1.88,1.11-3.02,1.11-4.26,0-5.26-3.79-5.26-7.3,0-3.1.8-7.7,5.29-7.7,3.58,0,3.92,2.58,4.02,3.23h2.76Z"/>
  <path class="cls-3" d="m235.29,147.43c1.06,1.32,2.66,1.7,4.13,1.7s3.04-.41,4.13-1.7c1.52-1.86,1.68-4.8,1.68-6.06,0-4.24-1.39-7.43-5.66-7.43-4.72,0-5.94,3.79-5.94,7.61,0,2.04.37,4.29,1.65,5.89m-1.96-13.16c1.93-2.09,4.49-2.51,6.22-2.51,5.16,0,8.41,3.31,8.41,9.63,0,4.96-1.99,9.93-8.62,9.93s-8.41-4.51-8.41-9.62c0-2.12.36-5.24,2.41-7.43"/>
  <polygon class="cls-3" points="262.86 150.89 265.36 150.89 265.36 134.21 271.25 150.89 273.7 150.89 279.81 134.11 279.81 150.89 282.34 150.89 282.34 132.25 278.09 132.25 272.69 147.61 267.43 132.25 262.86 132.25 262.86 150.89"/>
  <polygon class="cls-3" points="298.27 150.89 300.77 150.89 300.77 134.21 306.66 150.89 309.11 150.89 315.22 134.11 315.22 150.89 317.75 150.89 317.75 132.25 313.49 132.25 308.1 147.61 302.83 132.25 298.27 132.25 298.27 150.89"/>
  <rect class="cls-3" x="333.62" y="132.25" width="2.58" height="18.64"/>
  <polygon class="cls-3" points="358.92 150.89 358.92 134.45 365.17 134.45 365.17 132.25 350.12 132.25 350.12 134.45 356.36 134.45 356.36 150.89 358.92 150.89"/>
  <polygon class="cls-3" points="378.71 150.89 381.22 150.89 381.22 134.21 387.1 150.89 389.55 150.89 395.67 134.11 395.67 150.89 398.2 150.89 398.2 132.25 393.94 132.25 388.55 147.61 383.28 132.25 378.71 132.25 378.71 150.89"/>
  <polygon class="cls-3" points="413.76 150.89 425.66 150.89 425.66 148.62 416.34 148.62 416.34 142.42 425.01 142.42 425.01 140.25 416.34 140.25 416.34 134.44 425.45 134.44 425.45 132.25 413.76 132.25 413.76 150.89"/>
  <polygon class="cls-3" points="441.07 150.89 443.41 150.89 443.41 135.06 452.89 150.89 456.19 150.89 456.19 132.25 453.81 132.25 453.81 147.66 444.66 132.25 441.07 132.25 441.07 150.89"/>
  <polygon class="cls-3" points="478.44 150.89 478.44 134.45 484.69 134.45 484.69 132.25 469.64 132.25 469.64 134.45 475.89 134.45 475.89 150.89 478.44 150.89"/>
</svg>