<?xml version="1.0" encoding="UTF-8"?>
<svg id="Calque_1" xmlns="http://www.w3.org/2000/svg" version="1.1" viewBox="0 0 521.4 155.2">
  <!-- Generator: Adobe Illustrator 30.1.0, SVG Export Plug-In . SVG Version: 2.1.1 Build 65)  -->
  <defs>
    <style>
      .st0 {
        fill: #d10a11;
      }

      .st1 {
        fill: #7eb5d1;
      }

      .st2 {
        fill: #6f6f6e;
      }
    </style>
  </defs>
  <g>
    <rect class="st1" x="158.5" width="108.8" height="120.8"/>
    <g>
      <path class="st2" d="M286.3,120.8V0h20v100.2h50.3v20.6h-70.3Z"/>
      <path class="st2" d="M364.3,120.8V0h68v20.5h-48.1v28.5h41.6v20.5h-41.6v51.4h-19.9Z"/>
      <path class="st2" d="M428.5,120.8L449.2,0h34c9.1,0,15.6.6,19.4,1.7,6,1.7,10.6,5,13.9,9.8,3.3,4.8,4.9,10.7,4.9,17.7s-1.6,13-4.7,17.8c-3.1,4.8-7.8,8.4-14.1,10.9,4.9,1.7,8.8,4.6,11.7,8.9,2.9,4.3,4.4,9.3,4.4,15s-1.8,14.9-5.3,21.2c-3.5,6.3-8.2,10.9-13.9,13.7-5.7,2.8-13.8,4.2-24.2,4.2h-46.8ZM452.3,101.3h19.7c7.7,0,13-.5,15.9-1.6,2.9-1.1,5.3-3.1,7.2-6,1.9-2.9,2.9-6.2,2.9-9.9s-1.3-7.7-3.8-10.2c-2.5-2.5-6.5-3.7-12-3.7h-24.4l-5.4,31.5ZM461.4,48.7h15.5c6.8,0,11.6-.5,14.6-1.6,3-1.1,5.3-3,7-5.7,1.7-2.7,2.5-5.8,2.5-9.2s-.6-5.2-1.9-7.1c-1.3-1.9-2.8-3.2-4.8-3.9-1.9-.7-6.1-1-12.4-1h-15.7l-4.9,28.5Z"/>
    </g>
    <rect class="st2" y="0" width="72.2" height="120.8"/>
    <rect class="st0" x="79.3" y="0" width="72.3" height="120.8"/>
  </g>
  <g>
    <path class="st2" d="M67.6,151.5v-18.7h7c1.4,0,2.6.2,3.4.6.9.4,1.5,1,2,1.7.5.8.7,1.6.7,2.5s-.2,1.6-.7,2.3c-.4.7-1.1,1.3-2,1.7,1.1.3,2,.9,2.6,1.7.6.8.9,1.7.9,2.8s-.2,1.7-.6,2.4c-.4.8-.8,1.3-1.4,1.7-.5.4-1.2.7-2,.9-.8.2-1.8.3-3,.3h-7.1ZM70.1,140.6h4c1.1,0,1.9,0,2.4-.2.6-.2,1.1-.5,1.4-.9.3-.4.5-1,.5-1.6s-.1-1.2-.4-1.6c-.3-.5-.7-.8-1.3-1-.6-.2-1.5-.3-2.8-.3h-3.7v5.7ZM70.1,149.3h4.7c.8,0,1.4,0,1.7,0,.6-.1,1-.3,1.4-.5.4-.2.7-.6.9-1,.2-.5.4-1,.4-1.6s-.2-1.3-.5-1.8-.9-.9-1.5-1.1c-.6-.2-1.5-.3-2.7-.3h-4.3v6.4Z"/>
    <path class="st2" d="M88.2,151.5v-18.7h2.5v18.7h-2.5Z"/>
    <path class="st2" d="M96.9,142.4c0-3.1.8-5.5,2.5-7.3,1.7-1.8,3.8-2.6,6.5-2.6s3.3.4,4.7,1.2c1.4.8,2.4,2,3.2,3.5.7,1.5,1.1,3.2,1.1,5s-.4,3.6-1.1,5.1c-.8,1.5-1.9,2.6-3.3,3.4s-2.9,1.2-4.5,1.2-3.3-.4-4.7-1.3c-1.4-.9-2.4-2-3.2-3.5-.7-1.5-1.1-3-1.1-4.7ZM99.4,142.4c0,2.3.6,4,1.8,5.3s2.7,1.9,4.6,1.9,3.4-.7,4.6-2c1.2-1.3,1.8-3.2,1.8-5.6s-.3-2.9-.8-4c-.5-1.1-1.3-2-2.3-2.6-1-.6-2.1-.9-3.3-.9-1.8,0-3.3.6-4.5,1.8-1.3,1.2-1.9,3.2-1.9,6Z"/>
    <path class="st2" d="M125.3,151.5v-16.5h-6.2v-2.2h14.8v2.2h-6.2v16.5h-2.5Z"/>
    <path class="st2" d="M139.2,151.5v-18.7h13.5v2.2h-11.1v5.7h10.4v2.2h-10.4v6.4h11.5v2.2h-14Z"/>
    <path class="st2" d="M159.3,151.5v-18.7h8.3c1.7,0,2.9.2,3.8.5.9.3,1.6.9,2.1,1.8.5.9.8,1.8.8,2.8s-.4,2.4-1.3,3.4-2.2,1.5-4,1.7c.7.3,1.2.6,1.5.9.7.7,1.4,1.5,2.1,2.5l3.3,5.1h-3.1l-2.5-3.9c-.7-1.1-1.3-2-1.8-2.6-.5-.6-.9-1-1.3-1.3-.4-.2-.7-.4-1.1-.5-.3,0-.7,0-1.4,0h-2.9v8.3h-2.5ZM161.7,141h5.3c1.1,0,2-.1,2.7-.4.6-.2,1.1-.6,1.5-1.1s.5-1.1.5-1.7c0-.9-.3-1.6-1-2.2-.6-.6-1.7-.9-3-.9h-5.9v6.2Z"/>
    <path class="st2" d="M178.7,151.5l7.2-18.7h2.7l7.7,18.7h-2.8l-2.2-5.7h-7.8l-2.1,5.7h-2.6ZM184.1,143.8h6.3l-2-5.2c-.6-1.6-1-2.9-1.3-3.9-.2,1.2-.6,2.4-1,3.6l-2.1,5.5Z"/>
    <path class="st2" d="M200.8,151.5v-18.7h7.1c1.2,0,2.2,0,2.8.2.9.2,1.7.4,2.3.9.6.4,1.1,1,1.5,1.8.4.8.6,1.6.6,2.6,0,1.6-.5,2.9-1.5,4-1,1.1-2.8,1.7-5.5,1.7h-4.8v7.6h-2.5ZM203.3,141.6h4.8c1.6,0,2.7-.3,3.4-.9s1-1.4,1-2.5-.2-1.5-.6-2c-.4-.6-.9-.9-1.6-1.1-.4-.1-1.2-.2-2.3-.2h-4.8v6.7Z"/>
    <path class="st2" d="M221.3,151.5v-18.7h2.5v18.7h-2.5Z"/>
    <path class="st2" d="M228.7,151.5l7.2-18.7h2.7l7.7,18.7h-2.8l-2.2-5.7h-7.8l-2.1,5.7h-2.6ZM234.1,143.8h6.3l-2-5.2c-.6-1.6-1-2.9-1.3-3.9-.2,1.2-.6,2.4-1,3.6l-2.1,5.5Z"/>
    <path class="st2" d="M249.9,145.5l2.3-.2c.1.9.4,1.7.8,2.3.4.6,1,1.1,1.9,1.5s1.8.6,2.9.6,1.8-.1,2.5-.4c.7-.3,1.3-.7,1.6-1.2.4-.5.5-1,.5-1.6s-.2-1.1-.5-1.5c-.3-.4-.9-.8-1.7-1.1-.5-.2-1.6-.5-3.3-.9s-2.9-.8-3.6-1.2c-.9-.5-1.6-1-2-1.7s-.7-1.5-.7-2.3.3-1.8.8-2.6,1.3-1.4,2.3-1.9,2.2-.6,3.4-.6,2.6.2,3.7.7c1.1.4,1.9,1.1,2.4,2s.9,1.9.9,2.9l-2.4.2c-.1-1.2-.6-2.1-1.3-2.7s-1.8-.9-3.3-.9-2.6.3-3.3.8-1,1.2-1,2,.2,1.2.7,1.7c.5.4,1.7.9,3.7,1.3,2,.5,3.4.9,4.1,1.2,1.1.5,1.9,1.1,2.4,1.9s.8,1.7.8,2.7-.3,1.9-.9,2.8-1.4,1.6-2.5,2.1-2.3.7-3.6.7-3.1-.2-4.3-.7c-1.1-.5-2-1.2-2.7-2.2-.7-1-1-2.1-1-3.4Z"/>
    <path class="st2" d="M280.8,151.5v-18.7h2.5v7.7h9.7v-7.7h2.5v18.7h-2.5v-8.8h-9.7v8.8h-2.5Z"/>
    <path class="st2" d="M302.6,151.5v-18.7h2.5v18.7h-2.5Z"/>
    <path class="st2" d="M311.2,145.5l2.3-.2c.1.9.4,1.7.8,2.3.4.6,1,1.1,1.9,1.5.9.4,1.8.6,2.9.6s1.8-.1,2.5-.4c.7-.3,1.3-.7,1.6-1.2.4-.5.5-1,.5-1.6s-.2-1.1-.5-1.5c-.3-.4-.9-.8-1.7-1.1-.5-.2-1.6-.5-3.3-.9-1.7-.4-2.9-.8-3.6-1.2-.9-.5-1.6-1-2-1.7s-.7-1.5-.7-2.3.3-1.8.8-2.6c.5-.8,1.3-1.4,2.3-1.9s2.2-.6,3.4-.6,2.6.2,3.7.7c1.1.4,1.9,1.1,2.4,2s.9,1.9.9,2.9l-2.4.2c-.1-1.2-.6-2.1-1.3-2.7s-1.8-.9-3.3-.9-2.6.3-3.3.8-1,1.2-1,2,.2,1.2.7,1.7c.5.4,1.7.9,3.7,1.3s3.4.9,4.1,1.2c1.1.5,1.9,1.1,2.4,1.9s.8,1.7.8,2.7-.3,1.9-.9,2.8-1.4,1.6-2.5,2.1-2.3.7-3.6.7-3.1-.2-4.3-.7c-1.1-.5-2-1.2-2.7-2.2-.7-1-1-2.1-1-3.4Z"/>
    <path class="st2" d="M332.1,151.5v-18.7h7.1c1.2,0,2.2,0,2.8.2.9.2,1.7.4,2.3.9s1.1,1,1.5,1.8.6,1.6.6,2.6c0,1.6-.5,2.9-1.5,4s-2.8,1.7-5.5,1.7h-4.8v7.6h-2.5ZM334.6,141.6h4.8c1.6,0,2.7-.3,3.4-.9.7-.6,1-1.4,1-2.5s-.2-1.5-.6-2c-.4-.6-.9-.9-1.6-1.1-.4-.1-1.2-.2-2.3-.2h-4.8v6.7Z"/>
    <path class="st2" d="M348.2,151.5l7.2-18.7h2.7l7.7,18.7h-2.8l-2.2-5.7h-7.8l-2.1,5.7h-2.6ZM353.6,143.8h6.3l-2-5.2c-.6-1.6-1-2.9-1.3-3.9-.2,1.2-.6,2.4-1,3.6l-2.1,5.5Z"/>
    <path class="st2" d="M370.3,151.5v-18.7h2.5l9.8,14.7v-14.7h2.4v18.7h-2.5l-9.8-14.7v14.7h-2.4Z"/>
    <path class="st2" d="M392.2,151.5v-18.7h2.5v18.7h-2.5Z"/>
    <path class="st2" d="M399.6,151.5l7.2-18.7h2.7l7.7,18.7h-2.8l-2.2-5.7h-7.8l-2.1,5.7h-2.6ZM405,143.8h6.3l-2-5.2c-.6-1.6-1-2.9-1.3-3.9-.2,1.2-.6,2.4-1,3.6l-2.1,5.5Z"/>
    <path class="st2" d="M422,151.5v-2.6h2.6v2.6c0,1-.2,1.7-.5,2.3-.3.6-.9,1-1.6,1.4l-.6-1c.5-.2.8-.5,1.1-.9.2-.4.4-1,.4-1.8h-1.3Z"/>
    <path class="st2" d="M440.6,145.5l2.3-.2c.1.9.4,1.7.8,2.3.4.6,1,1.1,1.9,1.5.9.4,1.8.6,2.9.6s1.8-.1,2.5-.4c.7-.3,1.3-.7,1.6-1.2.4-.5.5-1,.5-1.6s-.2-1.1-.5-1.5c-.3-.4-.9-.8-1.7-1.1-.5-.2-1.6-.5-3.3-.9-1.7-.4-2.9-.8-3.6-1.2-.9-.5-1.6-1-2-1.7s-.7-1.5-.7-2.3.3-1.8.8-2.6c.5-.8,1.3-1.4,2.3-1.9s2.2-.6,3.4-.6,2.6.2,3.7.7c1.1.4,1.9,1.1,2.4,2s.9,1.9.9,2.9l-2.4.2c-.1-1.2-.6-2.1-1.3-2.7s-1.8-.9-3.3-.9-2.6.3-3.3.8-1,1.2-1,2,.2,1.2.7,1.7c.5.4,1.7.9,3.7,1.3s3.4.9,4.1,1.2c1.1.5,1.9,1.1,2.4,1.9s.8,1.7.8,2.7-.3,1.9-.9,2.8-1.4,1.6-2.5,2.1-2.3.7-3.6.7-3.1-.2-4.3-.7c-1.1-.5-2-1.2-2.7-2.2-.7-1-1-2.1-1-3.4Z"/>
    <path class="st2" d="M461.9,151.5v-2.6h2.6v2.6h-2.6Z"/>
    <path class="st2" d="M471.3,151.5v-18.7h2.5v16.5h9.2v2.2h-11.7Z"/>
  </g>
</svg>