<?xml version="1.0" encoding="UTF-8"?>
<svg id="Calque_1" data-name="Calque 1" xmlns="http://www.w3.org/2000/svg" xmlns:xlink="http://www.w3.org/1999/xlink" viewBox="0 0 32.41 30.15">
  <defs>
    <style>
      .cls-1 {
        fill: none;
      }

      .cls-2 {
        clip-path: url(#clippath);
      }

      .cls-3 {
        fill: #d64123;
      }

      .cls-4 {
        fill: #841532;
      }
    </style>
    <clipPath id="clippath">
      <rect class="cls-1" width="32.41" height="30.15"/>
    </clipPath>
  </defs>
  <g class="cls-2">
    <path class="cls-3" d="m31.43,15.16l-.05-.13h.12s-.07.13-.07.13Zm.02-.91l.04.12h-.11s.07-.12.07-.12Zm-.81-3.25s-.11-.03-.16-.07c-.3-.25-.41-.57-.31-.95.04-.16.14-.18.26-.11.36.21.43.54.42.9-.08.09-.14.18-.22.24m.07,1.5c-.27.59-.09,1.21-.31,1.77-.01.03-.08.07-.12.07-.06,0-.13-.02-.17-.06-.11-.14-.29-.28-.31-.43-.05-.36-.01-.73-.01-1.35.01-.1-.12-.48.12-.8.06-.07.25-.13.31-.09.3.22.6.65.49.89m-1.65-3.27s-.17-.08-.26-.13c.04-.04.08-.1.12-.11.14-.02.27-.03.41-.04-.09.1-.17.21-.27.27m-2.09-3.77l-.04-.11.12.02-.07.1Zm-.75,19.73l-.04-.11h.11s-.07.11-.07.11Zm-1.14.72v-.1s.11.06.11.06l-.11.04Zm-8.76-13.67c-.18.03-.38.08-.51-.11-.01-.02.04-.11.07-.11.18-.03.36-.06.54-.07.05,0,.1.07.14.11-.08.06-.16.16-.25.18M1.69,16.66c-.27-.59-.24-1.1-.01-1.71.26.6.27,1.11.01,1.71m30.37.34c.71-2.41.21-4.74-.51-7.03-.14-.44-.25-1.04-.77-1.2-.3-.09-.68.11-1.03.16-.11.02-.22,0-.33-.01,0-.48-.02-.96-.01-1.44.03-1.08-.39-1.95-1.3-2.5-1.09-.66-2.06-1.51-3.33-1.9-1.22-.38-2.14-1.45-3.44-1.71-.16-.03-.31-.21-.41-.36-.37-.5-.88-.63-1.46-.65-.37-.01-.78.02-1.08-.13-.48-.24-.96-.15-1.44-.2-.71-.08-1.33.28-2,.31-.99.04-1.98.04-2.97.08-.24,0-.51.02-.71.13-.8.43-1.6.86-2.36,1.37-.76.51-1.48,1.09-2.2,1.66-.34.27-.64.59-.92.92-.1.12-.18.4-.11.49.29.4.05.72-.11,1.02-1.16,2.26-1.67,4.72-2.14,7.18-.1.53-.14,1.12.1,1.64.34.74.06,1.59.5,2.34.19.32.17.84-.11,1.32-.17-.42-.38-.78-.45-1.16-.14-.72-.61-1.36-.53-2.13-.55-1.56-.39-3.11-.04-4.7.21-.97.65-1.94.45-2.98-.38.58-1.06,2-1.1,2.38-.14,1.34-.57,2.65-.39,4.02.01.11-.04.24-.08.35-.01.04-.08.09-.12.09-.06,0-.13-.03-.17-.06-.19-.16-.33-.35-.37-.61-.08-.54.12-1.1-.18-1.66-.29.23-.77.19-.87.62-.1.42-.14.89.23,1.21.55.49.62,1.18.39,1.7-.36.78-.13,1.4.07,2.12.12.45.32.3.6.35.29.05.48.36.51.7.04.38-.01.73-.21,1.07-.08.14-.1.42-.02.5.62.62.62,1.6,1.3,2.2.31.27.46.72.69,1.08.13.2.24.46.44.56.41.22.67.51.85.93.09.21.31.43.51.5.68.23,1,.92,1.63,1.2.67.31,1.3.71,1.98.99,1.92.81,3.87,1.56,5.99,1.61.45.01.85.11,1.24.32.58.31,1.57.41,2.33.45.59.03,1.06-.36,1.59-.37,1.18-.01,2.13-.51,3.05-1.15.15-.11.31-.3.46-.3,1.08.03,1.78-.78,2.65-1.18.78-.36,1.51-.89,2-1.56.8-1.1,1.89-1.93,2.59-3.12.51-.87.91-1.58,1.16-2.54.07-.29.37-.55.13-.85-.54-.67.21-1.42-.17-2.09"/>
    <path class="cls-4" d="m1.06,11.11s.13,0,.17-.03c.23-.21.3-.56.16-.77-.02-.03-.07-.05-.17-.12-.1.28-.2.54-.28.81,0,.02.07.1.12.11"/>
    <path class="cls-4" d="m4.39,6.46c.04-.08-.04-.22-.06-.33-.1.04-.21.06-.29.12-.25.2-.3.48-.28.77.3-.09.49-.31.63-.57"/>
    <path class="cls-4" d="m3.76,7.03s-.03.01-.04.02c0,.02-.01.04-.02.05.02,0,.04-.01.06-.01,0-.02,0-.04,0-.06"/>
    <path class="cls-4" d="m1.26,18.78c-.02.1-.05.19-.05.29,0,.04.05.12.1.13.13.03.19-.31.07-.41-.02-.02-.07,0-.11-.01"/>
    <path class="cls-4" d="m3.39,7.41s-.04.01-.06.01c0,.03,0,.06.01.09,0-.01.02-.03.03-.05,0-.02.01-.04.02-.06"/>
    <path class="cls-4" d="m3.7,7.1c-.17.03-.26.14-.31.3.17-.03.26-.14.31-.3"/>
  </g>
</svg>