<?xml version="1.0" encoding="UTF-8"?>
<svg id="Calque_1" data-name="Calque 1" xmlns="http://www.w3.org/2000/svg" xmlns:xlink="http://www.w3.org/1999/xlink" viewBox="0 0 90.74 21.45">
  <defs>
    <style>
      .cls-1 {
        fill: none;
      }

      .cls-2 {
        clip-path: url(#clippath);
      }

      .cls-3 {
        fill: #d64123;
      }

      .cls-4 {
        clip-path: url(#clippath-1);
      }

      .cls-5 {
        clip-path: url(#clippath-4);
      }

      .cls-6 {
        clip-path: url(#clippath-3);
      }

      .cls-7 {
        clip-path: url(#clippath-2);
      }

      .cls-8 {
        clip-path: url(#clippath-6);
      }

      .cls-9 {
        clip-path: url(#clippath-5);
      }
    </style>
    <clipPath id="clippath">
      <rect class="cls-1" width="90.74" height="21.44"/>
    </clipPath>
    <clipPath id="clippath-1">
      <rect class="cls-1" width="90.74" height="21.44"/>
    </clipPath>
    <clipPath id="clippath-2">
      <rect class="cls-1" width="90.74" height="21.44"/>
    </clipPath>
    <clipPath id="clippath-3">
      <rect class="cls-1" width="90.74" height="21.44"/>
    </clipPath>
    <clipPath id="clippath-4">
      <rect class="cls-1" width="90.74" height="21.44"/>
    </clipPath>
    <clipPath id="clippath-5">
      <rect class="cls-1" width="90.74" height="21.44"/>
    </clipPath>
    <clipPath id="clippath-6">
      <rect class="cls-1" width="90.74" height="21.44"/>
    </clipPath>
  </defs>
  <g class="cls-2">
    <path class="cls-3" d="m75.63,16.21s.03,0,.04,0c0,0-.01-.01-.02-.02,0,0-.01,0-.02,0,0,0,0,0,0,0"/>
    <path class="cls-3" d="m18.55,3.91s0,0,0,0c0,0,0,.01,0,.02,0,0,.01,0,.02,0,0,0,0,0,0,0"/>
    <path class="cls-3" d="m71.92,3.69s-.06,0-.09,0c-.05-.01-.1-.03-.15-.04.04-.02.08-.04.13-.05.03,0,.06,0,.09,0,.05.02.1.03.15.05-.04.01-.08.03-.12.05m-.64-.04c-.11.02-.21.03-.31-.02-.01,0-.02-.03,0-.03.1-.06.21-.03.31-.01.02,0,.04.03.05.04-.01,0-.03.02-.05.03m-2.67.06c.77-.04,1.53.04,2.43.08-.55.1-1.35.07-2.43-.08m-1.4-.02s-.04-.02-.06-.04c.03-.02.07-.06.1-.06.34,0,.68-.01,1.14.12-.49.03-.83.02-1.17-.02m-.35,11.95c.08,0,.18.04.14.12-.03.06-.09.09-.19.08-.14-.02-.24-.12-.4-.09-.51.11-.98.04-1.47-.07-.27-.06-.57-.06-.86-.09.95-.06,1.87,0,2.78.06m10.51.05c-.21-.01-.44.02-.67-.09.28-.02.51-.08.67.09m-16.98-.74s-.01.08-.08.08c-.23,0-.47,0-.72,0-.15-.02-.32-.04-.49-.07-.01,0-.03-.03-.03-.04,0-.02.02-.03.04-.05.02-.01.04-.03.07-.03.41-.08.8-.04,1.19.05.01,0,.03,0,.03,0-.01,0-.02.01-.01.04m-1.95.02c-.34,0-.68-.03-1.02-.08.35-.06.7-.04,1.04-.01.02,0,.06.03.06.04-.02.02-.05.06-.08.06m-1.78.01s-.09-.02-.14-.04c.04-.01.08-.04.1-.03.04,0,.07.03.1.05-.02.01-.05.03-.07.03m-.49-.04c-.05.03-.22,0-.2-.03,0-.01.05-.03.07-.03.05,0,.1.02.14.03,0,.01,0,.03-.01.03m-.74-.04v-.03s.06.02.06.02h-.06Zm-.38.7c-.05,0-.11,0-.17,0-.06,0-.12,0-.17-.02-.03-.01-.05-.04-.06-.07,0,0,.05-.03.07-.03.11,0,.23,0,.34.01.05,0,.09.04.13.05-.05.02-.09.04-.14.04m-1.36-.65c-.06,0-.12,0-.18,0-.06,0-.12,0-.18-.02-.03,0-.04-.02-.07-.04.04-.02.07-.05.11-.05.12,0,.24,0,.35.01.02,0,.04.02.06.04-.04.02-.07.05-.11.05m-1.61.04s-.07-.02-.07-.03c.01-.02.03-.06.06-.07.27-.09.54-.11.95-.05-.38.12-.64.2-.94.14m-.87,1.57c-.14.09-.32.12-.49.07-.19-.05-.36-.12-.58-.05-.02,0-.15-.07-.16-.11-.02-.08.1-.07.18-.07.18,0,.35.02.53.03,0,0,0-.02,0-.03.17.02.34.04.51.07.02,0,.04.03.04.04,0,.02-.02.04-.04.05m-1.37-1.02s-.13-.03-.14-.05c-.02-.06.03-.1.13-.11.04.02.12.03.13.05.02.06-.02.11-.13.11m-.37,1.03s-.04-.02-.07-.03c.05-.04.11-.08.15-.11.08,0,.11.02.1.06-.02.06-.09.09-.18.08m1.03-1.14s.05.03.04.04c-.01.03-.04.06-.07.09-.02-.03-.06-.05-.06-.08,0-.02.06-.03.09-.05m.53.14l-.03.03v-.03s.03,0,.03,0Zm-15.86.62s-.04-.03-.06-.04c.06,0,.11-.02.17-.02.02,0,.04.02.06.04-.06,0-.11.02-.17.02m-3.74.06c.14-.14.38-.15.6-.17.2-.02.42,0,.63.02.29.02.58.04.94.06-.77.22-1.47.14-2.17.09m-.3.09c-.57-.03-1.13-.05-1.7-.08.05-.07.16-.09.28-.08.56.02,1.12.05,1.68.07-.05.07-.14.09-.26.09m-2.34.01s0-.08.01-.09c.19-.05.39-.01.58,0-.07.05-.13.11-.22.15-.14.06-.26.03-.37-.07m-.34,0s-.07.08-.1.08c-.57-.01-1.12.02-1.66.15-.23-.08-.44-.06-.65.04-.02.01-.1-.02-.15-.03-.43-.08-.87-.12-1.31-.03-.08.02-.18.02-.26.02-.36-.01-.72-.04-1.02.14-.01,0-.1-.03-.14-.05-.04-.03-.05-.07-.07-.1.04-.03.07-.06.12-.08.05-.02.11-.05.16-.05.54.06,1.06-.05,1.6-.06.5,0,1-.07,1.51-.03.33.02.62-.13.97-.07.29.05.59.02.88-.03.1-.02.19.05.14.1m-1.28-13.15s.07.04.11.06c-.02.01-.05.02-.08.03-.03,0-.06,0-.09,0-.06,0-.11-.02-.16-.03-.02,0-.02-.03-.03-.04.08,0,.17-.02.26-.02m.5.04c.11-.03.21-.03.31.01.01,0,.02.02.03.04-.08,0-.16.02-.24.02-.05,0-.09-.03-.14-.04.01,0,.02-.02.04-.03m.73-1.45v.03s-.06-.02-.06-.02h.06Zm.14,1.39l.05.02h-.06s.01-.02.01-.02Zm-7.27,13.52c-.07.01-.15.06-.22,0-.01-.01-.01-.03-.01-.05.03-.1.16-.09.27-.09.11,0,.22.02.34.03-.1.12-.25.08-.37.1m-.39-14.06s-.02.04-.04.04c-.05,0-.1,0-.15-.01-.16-.02-.31-.05-.47-.07.25-.11.43-.12.65-.02.02,0,.01.04,0,.05m-5.65,15.32c-.11.01-.22.02-.29-.05,0,0,.02-.03.03-.03.1-.04.21-.04.3.01.01,0,.02.02.03.04-.02.01-.04.03-.07.03m1.18-14.54s-.04-.02-.06-.04c.05,0,.11-.02.16-.03.02.01.04.03.06.04-.05.01-.11.02-.16.03m-.84-.03s.05-.05.07-.07c.08.08,0,.07-.07.07m-.14.08c-.68-.01-1.34.08-2,.12-.04,0-.11-.03-.14-.06-.03-.02-.04-.09-.02-.09.21-.06.43-.13.67-.11.21.01.41.03.62.02.17,0,.35-.07.51-.06.15.02.29.1.46.11-.03.03-.07.07-.1.07m-2.59,11.96s.06-.06.09-.06c.25-.03.5-.05.77.06-.32.06-.59.02-.86,0m.86-12.32v.03s-.06-.02-.06-.02h.06Zm-.79.35v-.04s.04,0,.04,0l-.04.03Zm-.34.07s-.1.03-.15.03c-.09-.01-.13-.06-.1-.12.05-.06.15-.06.22-.04.09.03.08.09.03.14m-.68-.11s-.03-.04-.05-.06c.05,0,.1,0,.14,0,.02,0,.04.02.05.03-.05,0-.1.02-.14.03m-5.07,11.33v-.03s.04,0,.04,0l-.04.03Zm-.43-3.59v-.03s.06.02.06.02h-.06Zm-.21.34l-.02-.03h.05s-.04.03-.04.03Zm-1.23-.19c-.12.01.02.01-.05-.05-.01,0,.04-.08.08-.09.24-.07.46,0,.67.07-.23.02-.46.05-.7.07m-2.36,2.42c-.26.04-.51.02-.76,0,.2-.16.51-.12.77-.16.02,0,.08.05.08.08,0,.03-.05.08-.08.08m3.66-8.09v-.03s.06.02.06.02h-.06Zm-.35-.01l-.02-.03h.05s-.04.03-.04.03Zm-.42.1c-.13,0-.26,0-.39,0,.09-.12.24-.1.4-.07.02,0,.04.02.06.04-.02.01-.05.03-.07.03m-1.26-.51s-.06-.04-.08-.06c.02-.01.05-.03.07-.03.05.01.09.03.14.04-.04.01-.09.04-.13.04m85.67,1.24c-.8-.07-1.6-.1-2.39-.24-.54-.1-1.14-.04-1.67-.2-.1-.03-.24-.03-.36-.03-.63-.03-1.24-.1-1.86-.19-1.05-.15-2.11-.28-3.18-.3-.52-.01-1-.12-1.49-.21-.04,0-.07-.06-.07-.09,0-.03.05-.08.09-.08.36-.03.73-.03,1.06.07.23.07.46.08.7.09.36.02.72.04,1.08.05.11,0,.26.07.35-.07-.34-.02-.67-.04-1-.07-.15-.01-.31-.01-.44-.05-.63-.19-1.3-.27-2-.29-.21,0-.42-.03-.63-.04-.55-.02-1.06-.11-1.52-.3-.26-.11-.55-.14-.85-.16-.39-.02-.78-.05-1.17-.08-.22-.01-.39-.08-.56-.16-.02,0-.03-.03-.02-.04.01-.02.05-.03.07-.03.12,0,.24,0,.36,0,.04,0,.08-.03.13-.04-.05-.02-.1-.04-.16-.05-.11-.02-.23-.03-.34-.05-.01,0-.03-.03-.02-.04.01-.01.04-.03.07-.04.1-.02.23.02.31-.08-.18-.03-.37-.03-.52-.09-.19-.06-.39-.09-.6-.1-.19-.01-.32.01-.46.12-.16.12-.35.08-.48-.08-.13-.16-.31-.22-.57-.23-.24-.01-.47-.04-.71-.06-.07,0-.07-.04-.04-.09.1-.15-.08-.2-.24-.25-.13-.04-.32.01-.47-.12.18,0,.3,0,.42,0,1.26.06,2.52.13,3.78.19,1.11.05,2.22.1,3.33.14.08,0,.11-.03.08-.07-.01-.02-.03-.03-.04-.05-.11-.08-.26-.08-.41-.09-.3-.03-.63,0-.89-.08-.34-.1-.7-.11-1.05-.13-.36-.03-.75,0-1.07-.09-.67-.19-1.44-.07-2.09-.29-.02,0-.06,0-.09,0-.4.07-.75-.07-1.14-.08-.38,0-.79,0-1.13-.15-.07-.03-.19-.04-.26-.02-.37.1-.7-.03-1.04-.05-.44-.02-.89-.09-1.35-.01-.17.03-.36,0-.54,0-1.86-.08-3.73-.17-5.59-.26-2.7-.13-5.4-.28-8.1-.41-.3-.02-.59-.01-.89.02-.77.07-1.54.11-2.32.04-.38-.03-.78-.06-1.17-.04-.87.05-1.73.01-2.59-.02-.15,0-.31-.03-.45,0-.3.07-.59.04-.89.03-.33-.01-.65-.04-.98.03-.22.05-.49.03-.7-.04-.18-.06-.32-.06-.51-.02-.14.03-.3.02-.45.01-.9-.04-1.8-.09-2.7-.14-.39-.02-.77-.05-1.16.05-.43.1-.88.09-1.33.07-.33-.02-.68-.07-.99-.03-.52.08-1.02.03-1.52.02-.21,0-.43-.02-.62.01-.27.05-.54.03-.81.02-.18,0-.38-.05-.54,0-.42.11-.83.03-1.25.03-.18,0-.38-.05-.54-.01-.42.09-.83.04-1.25.03-.24,0-.47.03-.71.05-.34.03-.7.12-1.03-.01-.51,0-1.01-.12-1.52.01-.39-.03-.77.07-1.16.07-.39,0-.77.01-1.16.05-.38.04-.78-.02-1.17-.03-.09,0-.19-.02-.27,0-.32.1-.65.05-.98.04-.21,0-.42-.01-.63,0-.04,0-.1.05-.1.08,0,.03.02.08.06.09.1.04.19.07.22.15.15,0,.3.04.44.02.67-.08,1.34-.16,2.02-.15.21-.08.37-.03.58.03.18.05.43.08.61.04.45-.1.89-.04,1.33-.03.21,0,.43.01.62-.02.42-.07.82-.01,1.24.05-.27.02-.5.11-.75.16-.14.03-.28.06-.43.07-.56.02-1.13.03-1.69.05-.15,0-.29.03-.44.05-.65.05-1.29.13-1.95.06-.14-.02-.31-.02-.44.01-.49.1-.93.05-1.38-.1-.15-.05-.33-.09-.5-.08-.68.04-1.37.02-2,.23-.17.06-.34.06-.53.05-.63-.05-1.25-.01-1.86.07-.16.02-.28,0-.43-.02-.18-.01-.4,0-.5.14.21.01.43.03.64.04.12,0,.19.05.23.11.27.05.49-.11.76-.08.24.03.46,0,.69-.06.13-.03.3-.01.44,0,.17.02.36.13.48.1.37-.09.77,0,1.13-.09.28-.07.57-.01.85,0-.07.12-.27.13-.42.16-.31.05-.64.1-.96.1-.94,0-1.89.09-2.83,0-.06,0-.11,0-.17,0-.12.15-.3.23-.57.18-.17-.03-.31-.07-.51-.03-.16.03-.36,0-.54,0-.3,0-.62-.05-.89,0-.32.07-.61.09-.93.06-.47.17-.98.13-1.49.12-.53,0-1.06,0-1.59.03-.24.01-.47.07-.7.1-.38.06-.76.11-1.13.17-.32.24-.78.14-1.17.2-.17.03-.33.09-.49.14-.02,0-.06.04-.05.04.03.02.07.06.1.06.29-.03.6-.04.88-.1.33-.06.61.07.92.04.1,0,.17,0,.23.04.02.01.04.03.04.05,0,.03.02.04.04.04,0,0-.02,0-.03,0-.33.09-.64.22-1.01.22-.28,0-.53,0-.77.12-.08.04-.23.06-.34.05-.34-.03-.66.05-.97.1-.25.04-.53.04-.77.15-.19.09-.12.25-.28.35-.06.04-.12.08-.18.12-.05.03-.04.07.03.09.22.08.22.16,0,.24-.03,0-.06.01-.08.03-.14.09-.15.2-.04.31.08.08.18.06.3.06.41-.01.8-.15,1.22-.1-.06.13-.28.13-.43.15-.38.05-.68.17-1,.3.19.06.35.1.5.15.11.04.24.06.34.03.35-.1.72-.02,1.07-.06.38-.04.75-.13,1.12-.2.09-.02.17-.04.26-.04.72.02,1.44.07,2.13-.12.03,0,.06,0,.09,0,.75.03,1.5.07,2.25.11.03,0,.07.02.07.03-.01.03-.03.07-.06.07-.44.04-.89.07-1.33.13-.88.11-1.76.21-2.65.24-1.01.04-1.9.28-2.84.49.17.14.43.05.59.16-.11.03-.21.09-.32.1-.38.02-.67.15-.94.31-.13.08-.29.12-.48.14-.2.02-.4.08-.58.15-.09.03-.17.12-.18.19,0,.1.16.07.26.08.12.02.24,0,.36.03.11.02.1.07.06.13-.02.03-.05.06-.07.09.83.05,1.66.1,2.48.15.03,0,.09.05.09.07-.01.03-.06.06-.1.09-.02.01-.06.02-.08.02-.47-.04-.87.08-1.27.21-.13.04-.28.07-.43.08-.23.02-.38.11-.54.19-.14.07-.35.14-.38.23-.05.13-.15.21-.27.3-.06.05.03.09.12.13.12.05.34-.04.41.12-.13,0-.25,0-.37,0-.11.01-.22.05-.32.08-.14.05-.14.14,0,.23.04.03.09.05.13.07-.23.14-.64.11-.84.32.16.03.3.05.45.07.09.01.17.04.16.11,0,.03-.05.06-.08.09-.02.01-.05.02-.08.02-.13.03-.2.09-.14.17.07.09.18.19.33.15.36-.08.71-.06,1.07-.04.3.01.59.04.88-.04.02,0,.07.03.1.06,0,0-.03.03-.05.05-.23.12-.6.06-.77.26-.02.03-.17.03-.25.02-.25-.02-.45-.01-.62.15-.09.08-.31.11-.48.13-.35.04-.71.07-1.06.07-.22,0-.41.05-.6.1-.13.03-.21.09-.15.17.08.11.11.21-.03.31-.09.07-.14.16-.22.26.16.02.31.04.45.07.09.02.17.05.15.12-.01.03-.05.07-.09.08-.16.05-.34.09-.49.14-.11.04-.18.11-.14.19.03.07.09.15.17.19.09.04.22.06.33.07.35.03.7.04,1.05.06-.03.03-.06.07-.09.07-.45,0-.87.13-1.33.1-.05,0-.11.02-.16.04-.02,0-.02.03-.02.05,0,.02,0,.05,0,.05.08.03.16.05.24.06.39.06.77-.05,1.16-.04.68.01,1.37.09,2.05-.02.54.06,1.08-.03,1.6-.07.52-.05,1-.01,1.51,0-.03.12-.18.13-.26.13-.62.06-1.21.19-1.84.22-.38.02-.76.08-1.13.13-.05,0-.08.05-.12.08.04.02.09.06.13.06.23-.01.47-.04.7-.05.11,0,.11.06.06.12-.03.03-.04.06-.07.09.17,0,.34.01.51.03.15.02.35-.04.48.13-.25-.02-.43.05-.63.08-.57.11-1.15.2-1.76.16-.45-.04-.89.02-1.33.07-.11.01-.27.07-.33.04-.38-.15-.74.03-1.11.02-.02,0-.04.06-.05.09,0,.01.02.04.04.04.28.09.6.1.87.05.43-.07.83-.03,1.25-.01.24,0,.48.04.72.04.32,0,.64.04.97-.03.3-.06.66-.05.96.06.28.1.6.12.87.08.46-.07.89-.04,1.33-.01.54.03,1.07.04,1.6-.05.17-.03.33-.05.51,0,.18.06.4.02.61,0,.96-.1,2.28-.2,3.07-.12-.03.03-.06.07-.09.07-.5.02-.99.14-1.51.07-.11-.02-.24,0-.35.02-.46.09-.93.12-1.4.15-.62.05-1.24.13-1.87.11-.12,0-.24,0-.36.02-.49.09-1.02.02-1.49.19-.11.04-.29,0-.44.02-.77.04-1.43.08-2.21.51-.09.05-.21.09-.19.18.02.1.15.1.27.11.38.04.72.18,1.12.18.04,0,.1.05.11.07,0,.03-.01.09-.05.1-.19.06-.38.11-.58.15-.43.08-.87.14-1.3.21-.03,0-.04.06-.05.09,0,.01.03.03.05.04.25.06.52.07.75.18.12.06.29.03.43-.02.05-.02.12-.02.17-.01.04,0,.09.05.1.07,0,.03-.04.07-.08.09-.04.02-.11.02-.17.02-.17.02-.37-.07-.52.07.4.02.81.1,1.17.05.55-.08,1.08-.02,1.61,0,.1,0,.23-.01.29.11-.5.03-.76.26-1.02.5.28.09.59.07.88.09.27.02.54.03.8-.05.05-.02.16.03.24.06.11.04.11.15,0,.18-.11.03-.23.07-.33.06-.35-.04-.65.06-.97.09-.2.02-.4.08-.59.14-.19.07-.44-.03-.62.11.31.02.64,0,.9.08.51.16,1.05.14,1.58.18.12,0,.29-.03.35.07-.52.19-1.1.1-1.71.13.1.05.14.08.19.08.45.03.89.07,1.35.03.28-.03.56.04.86-.01.14-.03.36.11.5.08.33-.07.68.01.98-.05.35-.07.63.07.95.05.2,0,.38-.08.61-.03.2.05.49.03.69-.03.26-.07.47.06.69,0,.27-.06.54-.05.8-.03.25.02.47-.03.69-.09.42-.09.82-.25,1.3-.18.06,0,.15-.05.21-.09.07-.05.14-.05.23-.02.14.05.29.07.43.03.26-.08.53-.05.8-.04.18,0,.37.03.54,0,1.03-.17,2.08-.06,3.12-.14.59-.05,1.19.04,1.79-.03.32-.03.66,0,.99.04.37.04.71-.08,1.07-.06,1.26.09,2.52.02,3.78.06.24,0,.48,0,.71-.06.17-.04.1-.1.08-.17-.07-.21.06-.3.37-.26.14.02.25.07.42.04.77-.12,1.55-.09,2.33-.05.21.01.43.04.62,0,.33-.06.66-.02.98-.03.36,0,.71-.05,1.07-.05.37,0,.72-.02,1.07-.07.2-.03.38-.03.6,0,.62.09,1.25.08,1.81-.15.11-.05.22-.07.33-.02.15.07.33.08.51.1.32.05.64-.09.96.02.03.01.14,0,.16-.03.2-.23.55-.16.85-.21.56-.09,1.13-.07,1.7-.07.84,0,1.68-.06,2.52,0,.06,0,.12,0,.18-.01.29-.08.6-.04.89-.03.24,0,.49.04.72.02.32-.04.63.02.96-.02.32-.04.66,0,.99.01.33.01.66.03.99.04.18,0,.37.02.54,0,.33-.06.66-.03.99-.03.21,0,.44.04.63,0,.33-.07.66-.03.99-.02.87.03,1.74.07,2.62.11.15,0,.31.04.45.01.54-.09,1.08-.03,1.61-.01.46.02.89-.04,1.29-.18.13-.05.26-.08.42-.09.44-.01.89-.14,1.31.05.02,0,.06,0,.09,0,.24.01.46-.11.71-.06.22.05.45.1.67.14.11.02.27.03.35,0,.24-.1.47.02.68,0,.27-.03.54-.02.81,0,.24.01.48,0,.69.11.15.08.36.08.52.04.42-.11.83-.01,1.25-.02.23,0,.47.06.56.16.19.23.51.22.84.24.45.02.9.05,1.35.07.12,0,.26.03.36,0,.34-.1.71-.12,1.05-.11.33,0,.65.16.98.24.06.01.12.02.17.04.16.07.32.05.51.03.28-.03.59-.11.87-.04.42.1.76.02,1.1-.11.13-.05.24-.12.4-.11.45.02.94-.01,1.34.08.52.12,1.05.14,1.59.17.93.06,1.86.1,2.79.14.08,0,.17-.01.32-.03-.31-.08-.54-.18-.8-.2-.56-.06-1.08-.23-1.67-.2-.21,0-.42-.02-.59-.11-.11-.06-.22-.02-.33,0-.08.02-.2.03-.25.01-.23-.12-.52-.09-.78-.13-.11-.02-.28-.03-.32-.08-.16-.2-.42-.18-.69-.16-.22.01-.24,0-.23-.14.01-.16-.06-.24-.32-.28-.38-.05-.74-.15-1.13-.17-.38-.03-.77-.09-1.11-.2-.48-.16-1-.18-1.49-.13-.49.05-.96.04-1.43.02-1.14-.05-2.28-.12-3.42-.18-.21-.01-.45,0-.62-.05-.37-.12-.76-.1-1.14-.13-.51-.04-1.02-.05-1.53-.08-.3-.01-.59-.04-.84-.17-.19-.09-.39-.14-.67-.07-.24.06-.55.06-.75-.09-.09-.06-.13-.12-.27-.08-.49.16-1,.14-1.49.03-.2-.04-.37.05-.51-.01-.2-.07-.37-.08-.58-.02-.13.03-.29,0-.44,0-.54-.02-1.08-.05-1.62-.08-.24-.01-.48-.02-.72-.03-.27,0-.54-.06-.8.03-.25.09-.43-.08-.68-.05-.69.08-1.37-.03-2.13-.07.26-.19.57-.27.75-.44.09-.08.27-.06.42-.05.69.03,1.38.06,2.07.08.15,0,.32.04.45,0,.39-.09.78-.02,1.16-.02.72,0,1.43.15,2.15,0,.07-.01.18.02.25.05.16.07.34.07.52.08.27.01.54.01.81,0,.25-.01.51.07.77.09.24.02.48.03.7-.05.11-.04.24-.04.35,0,.49.19,1.05.13,1.58.18.15.01.31,0,.42-.07.19-.12.42-.13.67-.11.56.06,1.15,0,1.68.18.07.03.18.02.27.02.32,0,.64,0,.96.04.32.05.66.05.99.07.15,0,.32,0,.44.04.39.14.81.11,1.23.14.45.03.9.05,1.35.07.18.01.38,0,.53.05.53.17,1.1.12,1.71.16-.09-.06-.14-.08-.18-.1-.08-.05-.24-.11-.23-.16.01-.14.22-.06.35-.09.51-.12,1.01-.05,1.5.03.23.04.46.07.7.09.29.03.58.05.87.12.46.11.96.1,1.55.09-.62-.2-1.15-.37-1.74-.45-.19-.13-.43.02-.67-.06-.31-.1-.67-.15-1.02-.19-.38-.04-.78-.04-1.17-.07-.41-.03-.83-.02-1.23-.14-.23-.07-.52-.08-.79-.01-.08.02-.19.03-.25,0-.39-.14-.82-.1-1.23-.13-.63-.05-1.26-.07-1.89-.11-.24-.01-.48-.03-.72-.05-.1,0-.18-.08-.13-.12.03-.03.07-.07.12-.07.24-.02.47-.02.71-.07.16-.03.39-.04.53,0,.62.2,1.29.14,1.94.19.3.02.61.04.89.09.61.12,1.22.18,1.85.08.17-.03.36,0,.54,0,.39.02.78.04,1.17.06.39.02.8.11,1.16.02.39-.1.8-.03,1.18-.13-.04-.08-.08-.15-.12-.23.98.04,1.96.09,2.98.14-.15-.41-.47-.7-1.03-.88.04-.03.06-.05.08-.06.12-.03.23-.08.1-.16-.2-.11-.41-.23-.69-.24-.6-.02-1.15-.22-1.76-.2-.09,0-.2,0-.26-.03-.29-.14-.62-.13-.95-.14-.45,0-.86-.08-1.27-.27.34-.03.64,0,.93.01.27,0,.54.03.81.04.28,0,.57.09.92,0-.35-.07-.59-.19-.9-.2-.54-.02-1.01-.22-1.57-.21-.38-.15-.81-.13-1.23-.15-.3-.02-.6-.04-.9-.02-.31.02-.57-.07-.87-.08-1.32-.05-2.64-.12-3.96-.19-.47-.03-.95-.07-1.42-.1.74-.08,1.47,0,2.21,0-.08-.17-.14-.32-.2-.46.21-.17.51-.03.74-.09.36-.09.71-.04,1.07-.03.51.02,1.01.06,1.54.04-.09-.11-.21-.1-.32-.11-.12,0-.25,0-.35-.03-.1-.03-.19-.09-.24-.16-.02-.02.07-.09.13-.13.16-.1.35-.14.57-.13.6.03,1.2.05,1.8.07.21,0,.42.03.62-.03.17-.05.39.04.57-.06-.38-.17-.8-.19-1.2-.26-.03,0-.07-.06-.07-.09,0-.03.05-.06.09-.09.02-.01.06-.01.08-.01.87.05,1.76.04,2.61.15.71.09,1.41.15,2.13.2.21.01.42,0,.61.07.3.11.58.04.84-.07-.03-.05-.06-.11-.08-.16-.11-.26-.11-.26.21-.35.22-.06.44-.12.65-.19.02,0,.01-.09,0-.09-.42-.03-.7-.19-.96-.38-.09-.07-.22-.03-.33,0-.33.06-.67.05-.94-.09-.43-.23-.93-.32-1.49-.34-.21,0-.45,0-.62-.05-.37-.12-.76-.11-1.14-.15-.3-.02-.6-.04-.89-.08-.52-.07-1.01-.23-1.55-.27-.09,0-.18-.03-.24-.06-.44-.27-1.01-.32-1.57-.35-.6-.03-1.15-.19-1.74-.25-.08,0-.09-.05-.05-.09.03-.03.07-.07.11-.07.18,0,.36,0,.54,0,.33,0,.69.07.99.01.43-.08.83-.03,1.25-.02.27.01.55.05.8,0,.3-.05.6-.03.89-.04.15,0,.3.02.45.02.06,0,.13,0,.17-.03.06-.03.09-.08.13-.12-.06-.01-.11-.04-.16-.03-.6.09-1.18.07-1.76-.08-.16-.04-.36-.03-.53-.04-.45-.03-.9-.05-1.35-.08-.18-.01-.37-.02-.52-.07-.25-.08-.5-.12-.78-.07-.12.03-.14-.02-.2-.06-.07-.06-.17-.1-.24-.16-.03-.02-.04-.07-.03-.1.02-.03.08-.06.13-.06.57.02,1.14.04,1.71.06.33.01.66.05.98-.04.57.03,1.12-.11,1.7-.06.68.06,1.38.08,2.07.11.12,0,.24,0,.35-.01.02,0,.06-.02.06-.04,0-.03,0-.08-.03-.1-.06-.03-.15-.06-.23-.08-.09-.02-.16-.05-.17-.11-.01-.09.1-.13.2-.17.16-.06.35-.04.53-.03.81.04,1.62.09,2.43.13.33.02.65.03.96.13.12.04.3.06.47-.02-.33-.09-.62-.17-1.03-.29.58-.01,1.05-.08,1.47-.02.71.09,1.43.1,2.15.16.12.01.25,0,.36.03.59.16,1.23.15,1.86.19.35.02.71.09,1.06-.05.08-.03.24,0,.35,0,.18,0,.36,0,.54.02.22,0,.25-.14.43-.18.26-.06.5-.13.78-.09.14.02.29.06.51-.06-.51-.04-1.03.01-1.35-.27.14-.03.27-.06.49-.1-.39-.07-.67-.16-1.13-.32.54.03.87.04,1.19.06.25.02.47.02.67-.11.14-.09.35-.1.51-.05.53.16,1.12.12,1.67.19.11.01.23.03.35-.07-.29-.06-.56-.15-.85-.17"/>
    <path class="cls-3" d="m14.81,1.31v.03s-.05-.02-.05-.02h.05Zm38.59.14v.03s-.05-.02-.05-.02h.05Zm1.13-.03s.09-.04.14-.03c.05,0,.1.02.14.04.06.03.12.07.07.12-.02.02-.1.02-.15.03-.05,0-.11,0-.16-.03-.08-.03-.08-.09-.04-.14m.9.11s.09.02.13.02c0,.01,0,.03,0,.03-.05.03-.2,0-.18-.03,0-.01.04-.03.06-.03m-45.38.43s.06,0,.08,0c.86-.12,1.73-.24,2.59-.38.33-.05.66-.09.99-.05.72.09,1.44-.08,2.15-.02.41-.11.82-.05,1.24-.03.14,0,.29.03.42,0,.42-.09.83-.03,1.24-.02.28,0,.56.02.83.03.2,0,.39.01.57-.05.31-.1.64-.1.98-.08.3.02.6.02.91-.03.28-.05.61-.04.89.07.1.04.2.04.32.02.13-.02.27-.03.41-.03.25,0,.5.04.75,0,.34-.07.39.22.68.23.11,0,.14-.02.19-.06.05-.05.11-.07.21-.08.19-.02.32.11.55.06.2-.04.44,0,.66,0,.69.02,1.37.07,2.07.01.65-.05,1.32-.1,1.98-.03.11.01.23.01.33-.02.35-.09.73.02,1.06-.09.37.13.75,0,1.13.03.44.04.89.03,1.33.06.21.01.39,0,.54-.1.11-.07.25-.1.37-.02.25.17.53-.03.78.03.07.02.14.06.23.02.3-.16.59-.13.92-.03.29.09.66.14.95,0,.34-.16.69-.1,1.04-.08.55.21,1.1.19,1.66.01.17-.05.33-.02.47.04.07.03.12.08.18.11.1.05.21.05.29-.02.09-.08.2-.12.35-.11.42.03.83.05,1.24.09.1,0,.19.04.31.03.5,0,1,0,1.5.02,1.42.07,2.83.15,4.25.22.27.01.55.05.82-.03.07-.02.18-.02.24,0,.34.13.68.12,1.04.05.15-.03.33,0,.5.02.24.03.47.06.7.09.26-.14.46.06.7.05.13,0,.19-.04.24-.11.1-.13.11-.13.24-.06.28.14.55.31.96.2.32.09.63.09.96.02.1-.02.24-.02.33.02.25.1.51.11.79.07.28.1.6.07.9.1.1,0,.22-.02.32-.04.04-.01.07-.05.1-.08,0,0-.03-.03-.05-.03-.4-.05-.82-.07-1.2-.18-.44.04-.83-.18-1.27-.12-.02,0-.05-.02-.06-.03-.02-.01-.04-.03-.05-.04-.04-.04-.02-.08.05-.08.64.02,1.28.04,1.92.06.19,0,.39.02.58,0,.42-.06.82-.03,1.22.05.08.02.17.05.24.03.36-.09.7-.04,1.04.03.07.02.18-.1.14-.15-.05-.06-.14-.1-.11-.21.3.01.6.02.9.03.17,0,.33.03.49-.02.25-.08.48-.05.72.03.07.02.19.05.23.02.2-.09.47-.01.78-.12-.34-.02-.58,0-.77-.06-.25-.07-.48-.04-.72-.03-.2.01-.34-.12-.55-.07-.17.04-.33.04-.48-.03-.15-.07-.31-.08-.47-.08-.44,0-.88-.05-1.32-.01-.13.01-.38.04-.43-.15-.02-.09-.17-.13-.32-.14-.19-.01-.39-.02-.58-.03-.25-.02-.47,0-.7.1-.35.16-.78.19-1.18.05-.11-.04-.21-.04-.32-.01-.19.04-.33-.08-.55-.02-.17.04-.44.01-.62-.04-.21-.07-.39.06-.56,0-.23-.07-.47-.06-.71-.04-.23-.15-.47.02-.71,0-.11,0-.22-.01-.33-.02-.22-.02-.45-.02-.65-.07-.25-.05-.49.03-.73,0-.19-.03-.29-.07-.31-.2-.02-.1-.11-.11-.21-.05-.02.01-.05.02-.06.04-.14.19-.34.21-.61.1-.21-.09-.49.03-.7-.08-.03-.02-.11-.01-.16-.01-.08,0-.17.01-.24.03-.31.08-.6.16-.94.02-.15-.06-.38-.05-.57,0-.12.03-.2-.02-.31-.04-.24-.05-.32-.18-.42-.31-.08.09-.14.18-.24.26-.15.13-.3-.02-.45-.02-.06,0-.12-.02-.16,0-.35.12-.71.05-1.07.04-.25,0-.5-.03-.75-.04-.37.15-.76.04-1.14.05-.27,0-.55.01-.82.04-.36.03-.75.04-1.13-.01-.51-.06-1.03-.14-1.56,0-.09.02-.22-.02-.31-.05-.1-.03-.2-.09-.31-.05-.32.11-.65.04-.98.03-.49,0-.98-.1-1.49,0-.2.04-.44.02-.64-.08-.1-.05-.23-.04-.31,0-.24.14-.52.16-.77.07-.21-.07-.43.08-.63-.04-.04-.03-.2.01-.31.03-.41.07-.82.09-1.24.04-.5-.05-.99.05-1.49.03-.13,0-.26.05-.4.06-.35.03-.73-.04-1.02.16-.03.02-.1.02-.16.02-.47,0-.93.07-1.39.12-.38.04-.79.04-1.15-.06-.16-.04-.28-.06-.46-.03-.28.04-.59.08-.79-.15-.1-.11-.38-.12-.53-.05-.49.21-1.06.19-1.59.28-.29.05-.61-.05-.91.04-.24.07-.5.03-.74.02-.28,0-.41.19-.69.17-.08,0-.21-.02-.18-.06.09-.14-.05-.15-.19-.16-.17-.01-.31-.03-.38-.16-.06-.09-.19-.07-.31.02-.12.1-.15.18.06.24,0,0-.02.07-.05.08-.09.03-.2.08-.3.07-.42-.02-.83-.02-1.24.04-.08.01-.16-.01-.24-.02-.02,0-.05-.02-.06-.03,0-.02.02-.03.03-.05.07-.06.16-.1.28-.1.19,0,.39.01.58.02.12,0,.22-.03.3-.08.02-.01.04-.03.04-.04,0-.01-.03-.04-.05-.03-.11.01-.21.03-.32.04-.38.03-.77-.03-1.15.06-.09.02-.21-.02-.25-.1-.02-.05-.08-.09-.18-.06-.14.05-.26.01-.38-.04-.11-.05-.21-.03-.28.05-.02.03-.1.06-.11.06-.19-.09-.36-.04-.55,0-.19.05-.42-.05-.66.05.29.08.59.03.84.13.09.03.26-.04.39-.03.33.02.66,0,1.02.07-.08.03-.12.07-.16.07-.58-.01-1.15.07-1.72.14-.5.06-.5.07-1.02-.01-.43-.06-.88-.14-1.31-.08-.31.04-.6.05-.91.04-.28-.01-.55.02-.82.05-.24.03-.47.1-.73.1-.29,0-.47.17-.73.23,0,.22-.29.22-.51.28-.02,0-.02.06-.01.09,0,.01.03.03.06.03"/>
    <path class="cls-3" d="m53.45,19.29c-.18.04-.36.1-.54.14-.21.05-.35-.09-.54-.1-.05,0-.1.02-.16.02-.08,0-.2.04-.24.02-.3-.18-.71,0-1.02-.12-.23.06-.48-.01-.71.06-.4.12-.81.1-1.21-.01-.1-.03-.24-.07-.31-.05-.47.15-1.01-.07-1.47.11-.04.02-.15-.02-.22-.05-.23-.09-.49-.12-.7-.01-.29.15-.55.12-.85.03-.34-.1-.71-.12-1.06-.07-.26.04-.49.02-.74.02-.38,0-.77-.09-1.15.04-.08.03-.23,0-.31-.04-.23-.1-.49-.1-.73-.07-.28.03-.55.04-.83.05-.3.01-.59,0-.89-.04-.16-.03-.33-.03-.49.03-.23.07-.46.12-.71.04-.23.1-.49.07-.73.04-.83-.09-1.66.02-2.49-.01-.05,0-.12,0-.16.02-.24.1-.49.05-.73.04-.31,0-.61-.02-.92-.03-.22,0-.4.04-.58.13.2.07.4.03.59.06.21.03.45.12.62.08.24-.05.4.08.64.03.22-.05.49-.02.74,0,.24.01.42-.08.64-.11.05,0,.14-.03.15-.02.24.17.61-.05.85.1.55.05,1.11.09,1.66.04.2-.02.38-.03.58-.02.58,0,1.16.09,1.74-.02.08-.01.17,0,.25,0,.66,0,1.32.11,1.99,0,.13-.02.28,0,.42.01.39.02.78.04,1.17.05.19,0,.4.02.58-.01.31-.06.61-.03.91,0,.35.03.65-.11.99-.07.06,0,.11,0,.17.01.72.1,1.44-.05,2.16,0,.47-.1.94-.04,1.41-.03.14,0,.29.03.42.01.5-.1.99-.04,1.49-.02.26.01.49-.02.71-.11-.08-.1-.16-.2-.38-.15"/>
    <path class="cls-3" d="m18.3,3.15c.08,0,.16-.03.1-.09-.02-.03-.07-.06-.12-.07-.13-.02-.26.06-.39,0-.25-.1-.51-.06-.79-.05-.54.02-1.08.14-1.63.07-.25-.03-.49,0-.68.13-.24.16-.53.17-.83.06-.37-.13-.74-.09-1.1.02-.11.03-.1.11-.11.17.41.02.83.09,1.23.04.43-.05.89.01,1.3-.12.26.05.54-.1.8,0,.03.01.13,0,.16-.01.18-.13.36-.09.59-.04.23.05.48.05.73-.03.11-.04.27-.01.4-.01.07-.09.2-.08.33-.09"/>
    <path class="cls-3" d="m17.72,3.77s.01,0,.02,0c0,0,0,0,0-.01,0,0-.01,0-.02,0,0,0,0,0,0,0"/>
    <path class="cls-3" d="m15.09,3.8c.1-.04.09,0,.09.03-.03-.01-.06-.02-.09-.03m1.96-.12c-.09.03-.22.01-.32.04-.47.12-.93.09-1.37-.03-.27-.07-.55-.07-.82-.06-.43.02-.87.06-1.3.02-.17-.01-.33,0-.47.09-.09.05-.18.04-.3.03-.16-.01-.32.02-.48.03-.07,0-.1.04-.08.07.02.03.06.06.09.08.02.01.06.03.07.03.21-.06.35-.06.46.1.06.09.24.08.37.05.48-.11.96-.14,1.47-.12.27,0,.58-.02.81-.15,0,0,0,0,0,0,.07.02.15.07.22.07.74-.03,1.48-.02,2.21-.09.04,0,.07-.04.1-.07-.2-.09-.4-.17-.67-.08"/>
    <path class="cls-3" d="m27.44.52c.2-.05.44-.04.65-.08.21-.04.57.16.61-.15.32-.03.65-.1.98-.09.37,0,.71-.02,1.15-.12-.64-.11-1.16.06-1.68,0-.1-.01-.22.01-.33.03-.77.13-1.53.28-2.34.3-.12,0-.24.06-.47.12.57.05,1,.09,1.44,0"/>
    <path class="cls-3" d="m11.94.8s-.02,0-.03,0c0,0-.01.01-.02.02.01,0,.03,0,.03,0,0,0,0,0,.01-.01"/>
    <path class="cls-3" d="m13.98.49c.39-.03.76-.07,1.13-.15.26-.05.54-.06.81-.09.07,0,.14-.03.2-.05.04-.02-.12-.14-.21-.15-.19-.01-.39-.04-.56.04-.11.05-.2.11-.36.11-.67-.01-1.25.26-1.92.26-.05,0-.1.03-.14.05-.15.09-.34.11-.54.1-.2,0-.36.05-.44.18.39.03.74-.05,1.1-.13.31-.07.63-.15.95-.17"/>
    <path class="cls-3" d="m60.6,19.42c-.08-.02-.17-.03-.24-.02-.13.01-.26.05-.4.06-.15.01-.28-.13-.45-.03-.27-.05-.52-.06-.78.04-.11.04-.26.04-.39.06,0,.02,0,.03,0,.05.66.03,1.33.07,1.99.1.1,0,.22-.03.3-.07.05-.02.07-.09.08-.13,0-.02-.06-.06-.11-.07"/>
    <path class="cls-3" d="m71.83,17.55c-.1-.02-.22-.03-.32-.01-.16.03-.29.04-.47-.01-.19-.06-.43-.05-.64-.08,0,0,0,.01,0,.02-.17,0-.33-.03-.49-.02-.07,0-.15.04-.22.07-.02,0-.03.03-.04.05,0,.01.02.03.03.03.13.02.26.04.4.05.51.05,1.04-.01,1.54.13.06.02.15-.02.23-.03.07-.01.18-.02.15-.09-.02-.04-.1-.09-.16-.11"/>
    <path class="cls-3" d="m54.7,19.38c-.11.07-.31-.02-.41.12.49.03.95.05,1.41.07.03,0,.07-.03.09-.05,0,0-.01-.04-.03-.04-.33-.17-.65-.36-1.06-.09"/>
    <path class="cls-3" d="m32.25,19.37c-.34-.04-.7.03-1.04-.04-.02,0-.08.04-.11.06-.04.04-.02.08.05.08.18.03.37.05.47.06.26,0,.43,0,.59,0,.08,0,.17-.07.14-.1-.02-.03-.06-.06-.1-.07"/>
    <path class="cls-3" d="m21.35,2.94c-.2.06-.36.02-.53-.05-.19.08-.48-.02-.62.13.49.02.98.05,1.47.07.08,0,.14-.03.17-.08-.18,0-.3-.13-.5-.08"/>
    <path class="cls-3" d="m9.79,3.51q-.4-.03-1.02.2c.44.15.7-.07,1.02-.2"/>
    <path class="cls-3" d="m62.34,1.66s-.07.03-.11.05c.01.02.02.04.03.05.22.14.47.15.74.06.04-.01.06-.05.08-.08,0,0-.05-.03-.06-.03-.25.08-.46-.05-.7-.04"/>
    <path class="cls-3" d="m61,19.55s-.02.03,0,.04c.01.01.04.03.06.03.26-.03.52-.06.9-.11-.22-.06-.35-.13-.46-.12-.18.02-.38.03-.49.15"/>
    <path class="cls-3" d="m73.41,17.31c-.34-.04-.68-.1-1.04-.04.34.04.68.11,1.04.04"/>
    <path class="cls-3" d="m64.08,19.58s0,0,0,0c0,0,.02,0,.02,0,0,0,0-.01,0-.02,0,0-.02,0-.03,0"/>
    <path class="cls-3" d="m63.52,19.57s0,.05.06.07c.19.04.34-.02.51-.06-.21-.12-.45-.13-.57,0"/>
    <path class="cls-3" d="m18.51,21.4c.32.02.54.07.84,0-.29-.03-.51-.07-.84,0"/>
    <path class="cls-3" d="m57.19,19.36c-.05,0-.12.1-.08.13.07.06.28.08.36.04.01,0,.01-.02.02-.04-.02-.08-.17-.14-.3-.13"/>
    <path class="cls-3" d="m64.68,1.43c-.07,0-.02,0,.03,0,.03,0,.05-.01.07-.02-.03-.02-.05-.05-.08-.05-.11-.01-.21-.01-.32-.02-.02,0-.05.01-.07.02.03.02.05.04.08.05.05.01.1,0,.28.02"/>
    <path class="cls-3" d="m59.63,2.1c.17.06.32.07.48.05.02,0,.05-.02.07-.03-.02-.01-.03-.03-.05-.03-.15-.03-.31-.06-.5.01"/>
    <path class="cls-3" d="m61.73,2.16s-.06.01-.07.03c0,0,.01.03.03.04.09.03.19.07.28.09.01,0,.05-.01.06-.02.01-.01.01-.03.02-.05-.04-.09-.13-.11-.33-.09"/>
    <path class="cls-3" d="m17.08.22s.04-.02.05-.04c0-.01,0-.03-.02-.04-.11-.04-.21-.02-.29.04-.03.02-.03.05-.03.08,0,0,.04.01.09.03.06-.02.13-.04.2-.07"/>
    <path class="cls-3" d="m11.78,3.25c.15,0,.31.02.46.02.03,0,.06-.03.1-.05-.02-.01-.04-.03-.06-.03-.17,0-.37-.08-.49.06"/>
    <path class="cls-3" d="m34.08.07s.01-.03,0-.04c-.05-.05-.25-.05-.3-.01,0,0,0,.02,0,.03.05.05.24.05.3.02"/>
    <path class="cls-3" d="m60.54,2.18c.08.01.15,0,.19-.05,0-.03-.02-.06-.02-.09-.06.02-.13.04-.19.06-.06.03-.05.06.02.07"/>
    <path class="cls-3" d="m18.96,20.83c-.08,0-.15,0-.23,0-.01,0-.03.02-.04.02.07.01.14.03.22.04.04,0,.08-.02.12-.04-.02-.01-.04-.03-.06-.03"/>
    <path class="cls-3" d="m22.3,2.99s-.03-.03-.05-.03c-.15-.03-.29-.05-.38.05.12,0,.24,0,.36,0,.02,0,.04-.02.06-.03"/>
    <path class="cls-3" d="m21.88,3.01h-.02s0,0,0,.01c0,0,.02,0,.02,0,0,0,0,0,.01-.01"/>
    <path class="cls-3" d="m10.75,3.41c.12,0,.24,0,.35,0,.02,0,.04-.02.06-.03-.01-.01-.02-.03-.04-.03-.15-.03-.29-.05-.38.05"/>
    <path class="cls-3" d="m6.51,9.26s.1.04.15.04c.11,0,.2-.02.25-.08-.1,0-.2,0-.3,0-.03,0-.06.03-.09.05"/>
    <path class="cls-3" d="m6.9,9.21s.02,0,.03,0c0,0,0,0,0-.01,0,0-.02,0-.02,0,0,0,0,0-.01.01"/>
    <path class="cls-3" d="m70.03,13.37s-.1.02-.15.03c.04.02.08.04.13.05.07,0,.15,0,.22-.01-.05-.06-.13-.06-.2-.06"/>
    <path class="cls-3" d="m79,19.41s0,.02,0,.03c.03.03.26.04.3.02,0,0,0-.02,0-.03-.03-.03-.26-.05-.3-.02"/>
    <path class="cls-3" d="m63.62,2.32s.03.06.04.09c.02-.01.06-.02.06-.03,0-.03-.03-.06-.05-.09-.02.01-.06.02-.06.03"/>
    <path class="cls-3" d="m19.01.17c.05,0,.1-.01.16-.02-.02-.01-.04-.04-.06-.04-.05,0-.1.01-.15.02.02.01.04.04.06.04"/>
    <path class="cls-3" d="m21.32.65s-.04-.05-.06-.07c-.02.01-.06.02-.06.03,0,.03.02.06.03.09.03-.01.06-.03.09-.05"/>
    <path class="cls-3" d="m22.09,2.02s-.09-.03-.13-.04c-.02,0-.05.02-.07.02.04.01.09.03.13.04.02,0,.05-.02.07-.03"/>
    <path class="cls-3" d="m22.55,2.16s0-.02.01-.03c-.04,0-.08-.02-.13-.02-.02,0-.05.01-.06.03-.02.04.12.06.17.03"/>
    <path class="cls-3" d="m23.33,3.2h.02s0,0,0-.01h0s0,0,0,.01"/>
    <path class="cls-3" d="m23.06,3.24s.08.04.12.04c.08,0,.12-.03.15-.08-.07,0-.14,0-.2,0-.02,0-.04.02-.06.03"/>
    <path class="cls-3" d="m18.81,3.16s.07-.02.11-.03c-.04-.01-.08-.03-.12-.03-.01,0-.04.01-.06.02.03.02.05.05.08.05"/>
    <path class="cls-3" d="m17.98,3.25s0,0-.01-.01h0s0,0-.01.01c0,0,.02,0,.03,0"/>
    <path class="cls-3" d="m18.2,3.32s-.05-.05-.08-.06c-.04-.01-.09-.01-.14-.01.02.03.04.06.07.07.03.01.1,0,.15,0"/>
    <path class="cls-3" d="m11.74,3.26s.02,0,.03,0c0,0,0,0,.01-.01-.01,0-.02,0-.03,0,0,0,0,0-.01.01"/>
    <path class="cls-3" d="m11.5,3.3s.1.03.14.02c.04-.01.06-.04.09-.06-.05,0-.09,0-.14,0-.04,0-.07.03-.1.05"/>
    <path class="cls-3" d="m12.72,3.41s.02,0,.03,0c0,0,0,0,0-.01,0,0-.01,0-.02,0,0,0,0,0-.01.01"/>
    <path class="cls-3" d="m12.49,3.46s.1.03.15.02c.04,0,.06-.04.09-.06-.05,0-.09,0-.14,0-.04,0-.07.03-.1.05"/>
    <path class="cls-3" d="m67.69,13.4s.09.03.14.04c.02,0,.04-.02.07-.03-.05-.01-.1-.03-.14-.04-.02.01-.04.02-.07.03"/>
    <path class="cls-3" d="m75.78,16.3s.08-.02.12-.03c-.02-.01-.04-.03-.06-.03-.06,0-.12-.01-.18-.02.03.03.07.06.11.08"/>
    <path class="cls-3" d="m74.5,17.52s.04-.02.07-.03c-.05-.01-.09-.03-.14-.04-.02,0-.05.02-.07.03.05.01.09.03.14.04"/>
    <path class="cls-3" d="m72.76,17.85s.05-.02.07-.02c-.04-.01-.09-.03-.14-.04-.02,0-.05.01-.07.02.04.01.09.03.13.04"/>
    <path class="cls-3" d="m7.52,15.16s.08.04.11.04c.07,0,.12-.03.15-.07-.07,0-.13,0-.2,0-.02,0-.04.02-.06.03"/>
    <path class="cls-3" d="m7.78,15.13h.02s0,0,0-.01c0,0-.02,0-.02,0,0,0,0,0,0,.01"/>
    <path class="cls-3" d="m62.32,19.51s-.09,0-.13,0c.02.02.03.03.05.05.04,0,.09-.01.13-.02-.02-.01-.03-.03-.05-.03"/>
    <path class="cls-3" d="m66.16,19.73s.09.03.14.04c.02,0,.05-.02.07-.03-.05-.02-.09-.04-.14-.05-.02,0-.05.02-.07.03"/>
    <path class="cls-3" d="m66.97,19.74c-.05,0-.1.02-.15.03.02.01.04.03.06.03.05,0,.1-.02.15-.02-.02-.01-.04-.04-.06-.03"/>
    <path class="cls-3" d="m56.45,19.43s-.09,0-.13,0c.01.02.03.04.05.06.04,0,.09-.02.13-.03-.02-.01-.03-.04-.05-.04"/>
    <path class="cls-3" d="m57.8,19.52s.04.03.06.03c.05,0,.1-.02.15-.03-.02-.01-.04-.02-.06-.03-.05,0-.1.02-.15.02"/>
    <path class="cls-3" d="m36.26,20.97s-.1.01-.15.02c.02.01.03.04.05.04.05,0,.1-.01.15-.02-.02-.01-.04-.04-.05-.04"/>
    <path class="cls-3" d="m16.71,20.41s-.09,0-.14,0c.02.02.03.04.05.06.05,0,.09-.02.14-.02-.02-.01-.03-.03-.05-.03"/>
    <path class="cls-3" d="m27.2,21.07s.09.03.13.04c.02,0,.05-.02.07-.03-.04-.01-.09-.03-.13-.04-.02,0-.05.01-.07.02"/>
    <path class="cls-3" d="m14.88,21.38c-.05,0-.1.01-.15.02.02.01.04.04.06.04.05,0,.1-.01.15-.02-.02-.01-.04-.04-.06-.04"/>
  </g>
  <polygon class="cls-3" points="32.38 .07 32.42 .09 32.43 .06 32.38 .07"/>
  <polygon class="cls-3" points="15.35 .72 15.4 .72 15.36 .7 15.35 .72"/>
  <g class="cls-4">
    <path class="cls-3" d="m11.89.81s-.12,0-.06.06c.02-.02.04-.04.06-.06"/>
  </g>
  <polygon class="cls-3" points="24.45 1.59 24.49 1.62 24.51 1.59 24.45 1.59"/>
  <polygon class="cls-3" points="23.95 1.69 24.01 1.68 23.96 1.66 23.95 1.69"/>
  <polygon class="cls-3" points="19.71 3.07 19.76 3.09 19.77 3.06 19.71 3.07"/>
  <g class="cls-7">
    <path class="cls-3" d="m20.15,3.05s.03,0,.03,0c0,0,0,0,.01-.01-.01,0-.02,0-.03,0,0,0-.01.01-.02.02"/>
    <path class="cls-3" d="m20.1,3.11s.04-.04.05-.06c-.05,0-.12,0-.05.06"/>
  </g>
  <polygon class="cls-3" points="12.72 2.95 12.75 2.92 12.7 2.92 12.72 2.95"/>
  <polygon class="cls-3" points="10.13 3.46 10.16 3.44 10.11 3.43 10.13 3.46"/>
  <g class="cls-6">
    <path class="cls-3" d="m10.7,3.42s.02,0,.03,0c0,0,0,0,.01-.01,0,0-.02,0-.03,0,0,0-.01.01-.02.02"/>
    <path class="cls-3" d="m10.64,3.48s.04-.03.06-.05c-.04,0-.08.01-.1.03-.04.02,0,.04.04.03"/>
    <path class="cls-3" d="m18.53,4.01s0,.01,0,.02h.01s0,0,.01-.01c0,0-.01,0-.02,0"/>
    <path class="cls-3" d="m18.42,3.96s.07.03.1.05c0-.03,0-.06.01-.08-.04.01-.08.02-.12.04"/>
  </g>
  <polygon class="cls-3" points="7.31 8 7.36 8.01 7.34 7.98 7.31 8"/>
  <polygon class="cls-3" points="5.92 10.94 5.96 10.91 5.91 10.9 5.92 10.94"/>
  <polygon class="cls-3" points="5.63 11.76 5.69 11.76 5.64 11.74 5.63 11.76"/>
  <polygon class="cls-3" points="76.72 17.28 76.77 17.29 76.76 17.26 76.72 17.28"/>
  <g class="cls-5">
    <path class="cls-3" d="m73.86,17.36s.06.02.09.03c0-.03,0-.07-.09-.03"/>
    <path class="cls-3" d="m73.95,17.39s0,.01,0,.02c0,0,.02,0,.03,0,0,0,0-.01,0-.02,0,0-.01,0-.02,0"/>
    <path class="cls-3" d="m74.07,17.45s-.06-.02-.1-.03c0,.03,0,.08.1.03"/>
  </g>
  <polygon class="cls-3" points="67.82 17.38 67.88 17.37 67.83 17.35 67.82 17.38"/>
  <g class="cls-9">
    <path class="cls-3" d="m68.66,17.44s.02-.02.03-.03c-.04,0-.07,0-.08.04.02,0,.04,0,.05,0"/>
    <path class="cls-3" d="m68.51,17.52s.04-.03.05-.05c-.04,0-.1,0-.05.05"/>
    <path class="cls-3" d="m68.56,17.46s.03,0,.04,0c0,0,0,0,0-.01,0,0-.02,0-.03,0,0,0-.01.01-.02.02"/>
  </g>
  <polygon class="cls-3" points="6.33 15.21 6.37 15.22 6.36 15.19 6.33 15.21"/>
  <g class="cls-8">
    <path class="cls-3" d="m64.21,19.62s-.06-.02-.09-.03c0,.03,0,.07.09.03"/>
  </g>
  <polygon class="cls-3" points="68.49 19.87 68.55 19.86 68.5 19.84 68.49 19.87"/>
  <polygon class="cls-3" points="43.84 20.97 43.87 20.95 43.83 20.94 43.84 20.97"/>
  <polygon class="cls-3" points="8.69 20.03 8.74 20.05 8.75 20.02 8.69 20.03"/>
  <polygon class="cls-3" points="15.52 20.49 15.57 20.5 15.56 20.46 15.52 20.49"/>
  <polygon class="cls-3" points="16.04 20.53 16.08 20.5 16.03 20.5 16.04 20.53"/>
</svg>